<svg class="icon" viewBox="0 0 1024 1024" version="1.1" xmlns="http://www.w3.org/2000/svg" p-id="9439" height="128" width="128"><path d="M749.07706 401.862797c32.584051-32.583028 50.559412-75.896422 50.559411-122.017764v-87.159931C865.169892 179.313587 914.69065 121.254379 914.69065 51.789423V23.02639H109.308326V51.789423c0 69.464956 49.507455 127.524164 115.054179 140.894656v87.159931c0 46.121341 17.947732 89.434736 50.53076 122.017764l89.800056 89.801079c11.22053 11.207227 11.22053 29.436367 0 40.672247l-89.800056 89.772427c-32.583028 32.612703-50.530759 75.926098-50.53076 122.01981v87.160955c-65.546724 13.369469-115.054179 71.485982-115.054179 140.921262v28.763033H914.69065V972.210577c0-69.43528-49.520758-127.550769-115.054179-140.921262v-87.160954c0-46.093712-17.975361-89.407107-50.559411-122.019811l-89.77345-89.772427c-11.234856-11.23588-11.234856-29.46502 0-40.672246l89.77345-89.80108zM171.751369 80.55348h680.467586c-11.851909 33.482512-43.846536 57.525043-81.344494 57.525043H253.124515c-37.51433 0-69.493608-24.043554-81.373146-57.525043z m680.467586 862.894064H171.751369c11.879538-33.482512 43.858816-57.526066 81.37417-57.526067h517.748922c37.497957 0.001023 69.492585 24.044578 81.344494 57.526067zM708.404813 662.80945c21.74112 21.713491 33.708662 50.61774 33.708662 81.318911v84.26705H281.886525v-84.26705c0-30.701171 11.966519-59.60542 33.68001-81.318911l89.800056-89.799033c9.382676-9.382676 15.872471-20.478363 20.012759-32.247384h173.226974c4.129032 11.769021 10.646456 22.864708 20.026062 32.247384l89.772427 89.799033zM618.631363 450.990606c-9.379606 9.381652-15.89703 20.477339-20.026063 32.247384H425.378327c-4.140289-11.770044-10.630084-22.865731-20.01276-32.247384l-89.800056-89.800056c-21.713491-21.713491-33.68001-50.61774-33.680009-81.34654V195.604589h460.227973v84.239421c0 30.7288-11.967542 59.632026-33.708662 81.34654l-89.77345 89.800056z" p-id="9440"></path></svg>