<svg class="icon" viewBox="0 0 1024 1024" version="1.1" xmlns="http://www.w3.org/2000/svg" p-id="1452" height="128" width="128"><path d="M896.113843 190.986799 638.704239 190.986799 638.704239 104.315834 638.704239 64.303538l-40.013319 0L425.307034 64.303538l-40.012296 0 0 40.012296 0 86.671988L127.884111 190.987822l0 126.70475 43.096541 0 0 553.062208 0 88.941682 88.942705 0L767.575328 959.696462l77.399811 0 11.543917 0L856.519056 317.691549l39.594787 0L896.113843 190.986799zM425.307034 104.315834l173.384909 0 0 86.671988L425.307034 190.987822 425.307034 104.315834zM767.575328 870.753757 259.923356 870.753757 259.923356 317.691549l125.371382 0 0 0.021489 40.012296 0 0-0.021489 173.384909 0 0 0.021489 40.013319 0 0-0.021489L767.575328 317.691549 767.575328 870.753757zM340.739986 404.863934l88.942705 0 0 381.469108-88.942705 0 0-381.469108ZM469.736942 404.863934l88.943728 0 0 381.469108-88.943728 0 0-381.469108ZM598.691943 404.863934l88.943728 0 0 381.469108-88.943728 0 0-381.469108Z" p-id="1453"></path></svg>